<?xml version="1.0" encoding="UTF-8" standalone="no"?>
<!-- Created with Inkscape (http://www.inkscape.org/) -->

<svg
   width="40.763676mm"
   height="64.69532mm"
   viewBox="0 0 40.763675 64.69532"
   version="1.1"
   id="svg2394"
   xml:space="preserve"
   xmlns="http://www.w3.org/2000/svg"
   xmlns:svg="http://www.w3.org/2000/svg"><defs
     id="defs2391" /><g
     id="layer1"
     transform="translate(-84.591797,-115.2207)"
     style="fill:#000000;stroke:none"
     class="UnoptimicedTransforms"><g
       id="g1738"
       style="fill:#000000;stroke:none"
       transform="matrix(0.99210129,0,0,1,0.82915069,0)"><path
         style="fill:#000000;fill-opacity:1;fill-rule:evenodd;stroke:none;stroke-width:0.00663077"
         d="m 98.792983,157.50391 c 0,0 -0.06477,4.75209 0.740222,6.94726 0.804995,2.19516 3.604645,2.37891 3.604645,2.37891 l 0.16734,10.73437 c 0.0342,2.20073 1.57666,2.34501 1.66747,2.35157 0.0908,-0.007 1.63526,-0.15084 1.66943,-2.35157 l 0.16537,-10.73437 c 0,0 2.79965,-0.18375 3.60464,-2.37891 0.80499,-2.19517 0.74219,-6.94726 0.74219,-6.94726 l -2.37225,0.37695 -0.27364,3.86914 c 0,1.17937 -1.75414,1.204 -1.86631,0 l -0.34058,-3.65234 -1.32885,0.0352 -1.32886,-0.0352 -0.33861,3.65234 c -0.11217,1.204 -1.86828,1.17937 -1.86828,0 l -0.27168,-3.86914 z"
         id="path967" /><path
         style="fill:#000000;fill-opacity:1;fill-rule:evenodd;stroke:none;stroke-width:0.00663077"
         d="m 88.065674,145.07422 c -0.04049,2.08841 0.737121,3.60502 1.732434,4.58008 -1.786898,-0.98303 -4.166522,-1.59298 -5.368577,-0.15821 5.810994,7.30484 20.498759,7.14311 20.545089,7.14258 0.0444,5.3e-4 14.73213,0.16226 20.54313,-7.14258 -1.20206,-1.43477 -3.58365,-0.82482 -5.37055,0.15821 0.99531,-0.97506 1.7749,-2.49167 1.73441,-4.58008 -0.98259,-0.11894 -6.53176,2.33046 -9.67802,3.31445 0.059,0.39777 0.0559,1.59556 -0.565,1.88672 -0.6209,0.29115 -1.63379,-0.93462 -1.77771,-1.15234 -1.67643,0.49304 -3.57315,0.70117 -3.57315,0.70117 0,0 -0.34592,1.74055 -1.31507,1.76172 -0.96917,-0.0212 -1.31508,-1.76172 -1.31508,-1.76172 0,0 -1.89475,-0.20813 -3.57118,-0.70117 -0.143923,0.21772 -1.158779,1.44349 -1.779679,1.15234 -0.620902,-0.29116 -0.623965,-1.48895 -0.56501,-1.88672 -3.146258,-0.98399 -8.693452,-3.43339 -9.676037,-3.31445 z"
         id="path961" /><path
         style="fill:#000000;fill-opacity:1;fill-rule:evenodd;stroke:none;stroke-width:0.00663077"
         d="m 89.833543,125.79883 c 0,17.59058 12.721577,22.58008 12.721577,22.58008 h 2.41754 2.4195 c 0,0 12.71961,-4.9895 12.71961,-22.58008 l -5.83713,1.12695 c -0.0709,9.94366 -6.16589,15.38281 -6.16589,15.38281 v -14.82617 l -3.13609,0.12891 -3.1361,-0.12891 v 14.82617 c 0,0 -6.095012,-5.43915 -6.165895,-15.38281 z"
         id="path959" /><path
         id="path1239"
         style="color:#000000;fill:#000000;fill-rule:evenodd;stroke:none;stroke-width:0.8;-inkscape-stroke:none"
         d="m 100.11199,117.07031 c 0,0 -15.245358,0.92256 -15.298568,4.37305 -0.05321,3.4503 13.610362,4.67061 20.159238,4.58984 6.54887,0.0808 20.21243,-1.13954 20.15923,-4.58984 -0.0532,-3.45049 -15.29661,-4.37305 -15.2966,-4.37305 v 3.02344 c 2.23117,0.038 8.16015,0.88337 8.16015,1.08594 0,0.20255 -8.84861,1.03587 -13.02278,1.04101 -4.17418,-0.005 -13.022791,-0.83846 -13.022791,-1.04101 0,-0.20257 5.930953,-1.04791 8.162121,-1.08594 z" /><path
         style="fill:#000000;fill-opacity:1;fill-rule:evenodd;stroke:none;stroke-width:0.00663077"
         d="m 104.97266,115.2207 c -0.0579,3e-4 -2.42388,0.0262 -3.1361,2.17969 v 3.57227 l 3.1361,0.11914 3.13609,-0.11914 v -3.57227 c -0.71223,-2.1535 -3.07824,-2.17939 -3.13609,-2.17969 z"
         id="path1090" /></g></g></svg>
